<?xml version="1.0" encoding="UTF-8"?><svg id="_レイヤー_2" xmlns="http://www.w3.org/2000/svg" viewBox="0 0 175.34 25.1"><defs><style>.cls-1{fill-rule:evenodd;}.cls-1,.cls-2{fill:#ff48ff;}</style></defs><g id="_ヘッダー"><path class="cls-1" d="M16.9,9.88c-.07-.07-.13-.15-.19-.22l-.06-.06-4.92-4.81c-.97-.95-2.23-1.41-3.5-1.4-1.22.01-2.44.48-3.37,1.4-.03.03-.06.06-.09.09h0c-.93.96-1.39,2.22-1.38,3.48.01,1.26.51,2.51,1.47,3.45l10.63,10.39c.67.65.69,1.72.03,2.4-.65.67-1.73.69-2.4.03L2.49,14.23C.86,12.63.02,10.51,0,8.38c-.03-2.12.76-4.26,2.35-5.89h0l.02-.02h0s0,0,0,0c.03-.03.06-.06.09-.08C4.04.82,6.12.03,8.2,0c2.12-.02,4.26.76,5.89,2.35l.81.79.81-.79C17.35.76,19.48-.02,21.6,0c2.12.03,4.24.85,5.83,2.47h0s0,0,0,0c.04.04.08.08.11.12,1.53,1.62,2.28,3.71,2.26,5.79-.02,2.13-.86,4.25-2.49,5.85l-7.33,7.18c-.67.65-1.74.64-2.4-.03-.65-.67-.64-1.74.03-2.4l7.33-7.18c.96-.94,1.46-2.19,1.47-3.45.01-1.23-.42-2.46-1.32-3.42l-.06-.06h0s-.02-.02-.02-.02h0c-.94-.96-2.19-1.45-3.45-1.47-1.26-.01-2.53.45-3.5,1.4l-.75.73,1.68,1.65c.08.08.15.16.21.25.03.03.06.06.09.08.95.97,1.42,2.23,1.41,3.5,0,1.27-.5,2.54-1.45,3.5h0s-.08.07-.12.11c-.95.89-2.18,1.33-3.4,1.32-1.26-.01-2.51-.5-3.46-1.45h-.01s-.02-.03-.02-.03l-3.78-3.84c-.66-.67-.65-1.74.02-2.4.67-.66,1.74-.65,2.4.02l3.77,3.84.02.02c.3.29.7.44,1.09.45.37,0,.74-.12,1.03-.38l.06-.06h0c.31-.31.47-.71.47-1.11,0-.4-.14-.8-.44-1.11Z"/><path class="cls-2" d="M47.09,3.31h5.24l8.34,19.74h-5.82l-1.43-3.5h-7.56l-1.4,3.5h-5.71L47.09,3.31ZM51.85,15.32l-2.18-5.57-2.21,5.57h4.4Z"/><path class="cls-2" d="M62.62,3.45h5.46v19.6h-5.46V3.45Z"/><path d="M79.42,3.45h7.56c7,0,11.06,4.03,11.06,9.69v.06c0,5.66-4.12,9.86-11.17,9.86h-7.45V3.45ZM87.06,18.24c3.25,0,5.4-1.79,5.4-4.96v-.06c0-3.14-2.16-4.96-5.4-4.96h-2.21v9.97h2.21Z"/><path d="M99.84,15.55v-.06c0-4.31,3.53-7.92,8.4-7.92s8.34,3.56,8.34,7.87v.06c0,4.31-3.53,7.92-8.4,7.92s-8.34-3.56-8.34-7.87ZM111.41,15.55v-.06c0-1.85-1.34-3.42-3.22-3.42s-3.16,1.54-3.16,3.36v.06c0,1.85,1.34,3.42,3.22,3.42s3.16-1.54,3.16-3.36Z"/><path d="M118.16,15.55v-.06c0-4.28,3.33-7.9,8.12-7.9,3.11,0,5.18,1.34,6.47,3.39l-3.61,2.69c-.73-1.01-1.54-1.6-2.83-1.6-1.71,0-2.97,1.51-2.97,3.36v.06c0,1.96,1.23,3.44,3.02,3.44,1.26,0,2.07-.59,2.91-1.57l3.56,2.58c-1.4,2.07-3.42,3.47-6.75,3.47-4.56,0-7.92-3.58-7.92-7.87Z"/><path d="M135.76,18.35v-6.16h-1.79v-4.28h1.79v-3.84h5.32v3.84h3.53v4.28h-3.53v5.12c0,1.06.48,1.51,1.46,1.51.7,0,1.37-.2,2.02-.5v4.17c-.95.53-2.21.87-3.7.87-3.19,0-5.1-1.4-5.1-5.01Z"/><path d="M146.18,15.55v-.06c0-4.31,3.53-7.92,8.4-7.92s8.34,3.56,8.34,7.87v.06c0,4.31-3.53,7.92-8.4,7.92s-8.34-3.56-8.34-7.87ZM157.75,15.55v-.06c0-1.85-1.34-3.42-3.22-3.42s-3.16,1.54-3.16,3.36v.06c0,1.85,1.34,3.42,3.22,3.42s3.16-1.54,3.16-3.36Z"/><path d="M165.23,7.9h5.32v3.05c.87-2.07,2.27-3.42,4.79-3.3v5.6h-.45c-2.77,0-4.34,1.6-4.34,5.1v4.7h-5.32V7.9Z"/></g></svg>